<svg display="block" fill="none" height="43" viewBox="0 0 33 43" width="33" className="sc-ckVGcZ dCdR"><path fill-rule="evenodd" clip-rule="evenodd" d="M1.81982 33.2295C0.774244 32.5899 0.134766 31.4511 0.134766 30.2281V23.3992C0.134766 23.1377 0.204782 22.8858 0.335478 22.6617C0.74157 21.9615 1.64244 21.7236 2.3426 22.1343L17.7555 31.1196C18.6564 31.6471 19.2118 32.6087 19.2118 33.6542V40.7305C19.2118 41.0526 19.123 41.3746 18.9551 41.65C18.4463 42.4809 17.3633 42.7423 16.5324 42.2335L1.81982 33.2295ZM24.7943 20.2624C25.6952 20.7899 26.2507 21.7516 26.2507 22.797V37.1549C26.2507 37.5798 26.0219 37.9718 25.6532 38.1772L22.2784 40.0771C22.2364 40.1004 22.1898 40.119 22.1431 40.133V32.1605C22.1431 31.1289 21.6016 30.1721 20.7148 29.6399L7.17837 21.5415V12.5421C7.17837 12.2807 7.24839 12.0286 7.37908 11.8046C7.78517 11.1044 8.68605 10.8664 9.3862 11.2771L24.7943 20.2624ZM31.5393 9.65743C32.4448 10.1802 33.0003 11.1511 33.0003 12.1967V33.1688C33.0003 33.5982 32.7622 33.9949 32.3842 34.2003L29.1866 35.9274V21.3267C29.1866 20.2952 28.6453 19.3429 27.7631 18.8108L13.9279 10.5116V1.97434C13.9279 1.71295 13.9979 1.4609 14.124 1.23684C14.53 0.536685 15.4309 0.298631 16.1311 0.704724L31.5393 9.65743Z" fill="white"></path></svg>