<svg width="42px" height="47px" viewBox="0 0 42 47" fill="none" xmlns="http://www.w3.org/2000/svg" class="sc-ckVGcZ fOWhcg"><path fillRule="evenodd" clipRule="evenodd" d="M0.817003 0.718937C0.299121 1.27646 0 2.12837 0 3.24342V42.7922C0 43.9072 0.299121 44.7591 0.834861 45.2943L0.97326 45.4148L23.1529 23.2564V22.7613L0.955403 0.598511L0.817003 0.718937Z" fill="white"></path><path fillRule="evenodd" clipRule="evenodd" d="M30.5325 30.6648L23.1348 23.2742V22.7568L30.5325 15.3662L30.6932 15.4643L39.4436 20.433C41.9482 21.8424 41.9482 24.1707 39.4436 25.5979L30.6932 30.5666L30.5325 30.6648Z" fill="white" fill-opacity="0.8"></path><path fillRule="evenodd" clipRule="evenodd" d="M30.6928 30.5666L23.1344 23.0155L0.816406 45.3121C1.63341 46.1863 3.00401 46.2845 4.53533 45.4326L30.6928 30.5666Z" fill="white" fill-opacity="0.7"></path><path fillRule="evenodd" clipRule="evenodd" d="M30.6928 15.4644L4.53533 0.620756C3.00401 -0.253446 1.62895 -0.13302 0.816406 0.741183L23.1344 23.0155L30.6928 15.4644Z" fill="white" fill-opacity="0.9"></path><path opacity="0.2" fillRule="evenodd" clipRule="evenodd" d="M30.5328 30.406L4.55389 45.1515C3.10293 45.9856 1.80822 45.9276 0.973361 45.1693L0.834961 45.3076L0.973361 45.428C1.80822 46.1818 3.10293 46.2443 4.55389 45.4102L30.7114 30.5666L30.5328 30.406Z" fill="white" fill-opacity="0.2"></path></svg>